<?xml version="1.0" encoding="UTF-8" standalone="no"?>
<svg
   inkscape:export-ydpi="460.95001"
   inkscape:export-xdpi="460.95001"
   inkscape:export-filename="/home/thockin/src/kubernetes/new.png"
   sodipodi:docname="kcd_indonesia_2022_logo_notext_color.svg"
   inkscape:version="1.1.2 (b8e25be8, 2022-02-05)"
   version="1.1"
   id="svg2"
   height="701.96637"
   width="722.8457"
   xmlns:inkscape="http://www.inkscape.org/namespaces/inkscape"
   xmlns:sodipodi="http://sodipodi.sourceforge.net/DTD/sodipodi-0.dtd"
   xmlns="http://www.w3.org/2000/svg"
   xmlns:svg="http://www.w3.org/2000/svg"
   xmlns:rdf="http://www.w3.org/1999/02/22-rdf-syntax-ns#"
   xmlns:cc="http://creativecommons.org/ns#"
   xmlns:dc="http://purl.org/dc/elements/1.1/">
  <defs
     id="defs4">
    <inkscape:path-effect
       effect="fillet_chamfer"
       id="path-effect1695"
       is_visible="true"
       lpeversion="1"
       satellites_param="F,0,0,1,0,0,0,1 @ F,0,0,1,0,0,0,1 @ F,0,1,1,0,1.2724835,0,1 @ F,0,1,1,0,1.2724835,0,1 @ F,0,1,1,0,1.2724835,0,1 @ F,0,1,1,0,1.2724835,0,1 @ F,0,1,1,0,1.2724835,0,1 @ F,0,1,1,0,1.2724835,0,1 @ F,0,0,1,0,0,0,1 @ F,0,0,1,0,0,0,1 @ F,0,1,1,0,1.2724835,0,1 @ F,0,1,1,0,1.2724835,0,1 @ F,0,1,1,0,1.2724835,0,1 @ F,0,1,1,0,1.2724835,0,1 @ F,0,1,1,0,1.2724835,0,1 @ F,0,1,1,0,1.2724835,0,1 @ F,0,0,1,0,0,0,1 @ F,0,0,1,0,0,0,1 @ F,0,0,1,0,0,0,1 @ F,0,0,1,0,0,0,1 @ F,0,0,1,0,0,0,1"
       unit="px"
       method="auto"
       mode="F"
       radius="0"
       chamfer_steps="1"
       flexible="false"
       use_knot_distance="true"
       apply_no_radius="true"
       apply_with_radius="true"
       only_selected="false"
       hide_knots="false" />
    <inkscape:path-effect
       effect="fillet_chamfer"
       id="path-effect1690"
       is_visible="true"
       lpeversion="1"
       satellites_param="F,0,0,1,0,0,0,1 @ F,0,0,1,0,0,0,1 @ F,0,1,1,0,1.2724835,0,1 @ F,0,1,1,0,1.2724835,0,1 @ F,0,1,1,0,1.2724835,0,1 @ F,0,1,1,0,1.2724835,0,1 @ F,0,1,1,0,1.2724835,0,1 @ F,0,1,1,0,1.2724835,0,1 @ F,0,0,1,0,0,0,1 @ F,0,0,1,0,0,0,1 @ F,0,1,1,0,1.2724835,0,1 @ F,0,1,1,0,1.2724835,0,1 @ F,0,1,1,0,1.2724835,0,1 @ F,0,1,1,0,1.2724835,0,1 @ F,0,1,1,0,1.2724835,0,1 @ F,0,1,1,0,1.2724835,0,1 @ F,0,0,1,0,0,0,1 @ F,0,0,1,0,0,0,1 @ F,0,0,1,0,0,0,1 @ F,0,0,1,0,0,0,1 @ F,0,0,1,0,0,0,1"
       unit="px"
       method="auto"
       mode="F"
       radius="0"
       chamfer_steps="1"
       flexible="false"
       use_knot_distance="true"
       apply_no_radius="true"
       apply_with_radius="true"
       only_selected="false"
       hide_knots="false" />
    <inkscape:path-effect
       effect="fillet_chamfer"
       id="path-effect1753"
       is_visible="true"
       lpeversion="1"
       satellites_param="F,0,0,1,0,0,0,1 @ F,0,0,1,0,0,0,1 @ F,0,1,1,0,1.2724835,0,1 @ F,0,1,1,0,1.2724835,0,1 @ F,0,1,1,0,1.2724835,0,1 @ F,0,1,1,0,1.2724835,0,1 @ F,0,1,1,0,1.2724835,0,1 @ F,0,1,1,0,1.2724835,0,1 @ F,0,0,1,0,0,0,1 @ F,0,0,1,0,0,0,1 @ F,0,1,1,0,1.2724835,0,1 @ F,0,1,1,0,1.2724835,0,1 @ F,0,1,1,0,1.2724835,0,1 @ F,0,1,1,0,1.2724835,0,1 @ F,0,1,1,0,1.2724835,0,1 @ F,0,1,1,0,1.2724835,0,1 @ F,0,0,1,0,0,0,1 @ F,0,0,1,0,0,0,1 @ F,0,0,1,0,0,0,1 @ F,0,0,1,0,0,0,1 @ F,0,0,1,0,0,0,1"
       unit="px"
       method="auto"
       mode="F"
       radius="0"
       chamfer_steps="1"
       flexible="false"
       use_knot_distance="true"
       apply_no_radius="true"
       apply_with_radius="true"
       only_selected="false"
       hide_knots="false" />
    <inkscape:path-effect
       effect="fillet_chamfer"
       id="path-effect1784"
       is_visible="true"
       lpeversion="1"
       satellites_param="F,0,1,1,0,41.258038,0,1 @ F,0,0,1,0,18.04464,0,1 @ F,0,0,1,0,41.258038,0,1 @ F,0,0,1,0,18.04464,0,1"
       unit="px"
       method="auto"
       mode="F"
       radius="0"
       chamfer_steps="1"
       flexible="false"
       use_knot_distance="true"
       apply_no_radius="true"
       apply_with_radius="true"
       only_selected="false"
       hide_knots="false" />
  </defs>
  <sodipodi:namedview
     id="base"
     pagecolor="#ffffff"
     bordercolor="#666666"
     borderopacity="1.0"
     inkscape:pageopacity="0.0"
     inkscape:pageshadow="2"
     inkscape:zoom="0.43238889"
     inkscape:cx="6292.9461"
     inkscape:cy="2866.6324"
     inkscape:document-units="px"
     inkscape:current-layer="layer1"
     showgrid="false"
     inkscape:window-width="1920"
     inkscape:window-height="1035"
     inkscape:window-x="1920"
     inkscape:window-y="23"
     inkscape:window-maximized="1"
     inkscape:snap-global="true"
     fit-margin-top="10"
     fit-margin-left="10"
     fit-margin-right="10"
     fit-margin-bottom="10"
     inkscape:document-rotation="0"
     inkscape:object-paths="false"
     inkscape:snap-smooth-nodes="true"
     inkscape:snap-intersection-paths="false"
     showguides="true"
     inkscape:guide-bbox="true"
     inkscape:snap-to-guides="true"
     inkscape:pagecheckerboard="0" />
  <metadata
     id="metadata7">
    <rdf:RDF>
      <cc:Work
         rdf:about="">
        <dc:format>image/svg+xml</dc:format>
        <dc:type
           rdf:resource="http://purl.org/dc/dcmitype/StillImage" />
      </cc:Work>
    </rdf:RDF>
  </metadata>
  <g
     inkscape:label="Layer 1"
     inkscape:groupmode="layer"
     id="layer1"
     transform="translate(-6.3260942,-174.7524)">
    <path
       id="rect1668"
       style="fill:#ffffff;fill-opacity:1;fill-rule:evenodd;stroke:none;stroke-width:8;stroke-linecap:round;stroke-linejoin:round;stroke-miterlimit:4;stroke-dasharray:none;stroke-opacity:1;stop-color:#000000"
       d="m 6488.4995,2522.866 h 1080 v 1080 h -1080 z"
       inkscape:export-filename="/Users/zufar.dhiyaulhaq/Documents/Github/kubernetes-community-days/2022/logo/kcd_indonesia_2022_logo_notext_color.png"
       inkscape:export-xdpi="96"
       inkscape:export-ydpi="96" />
    <path
       id="path1678"
       style="fill:#326ce5;fill-opacity:1;stroke:#ffffff;stroke-width:0;stroke-miterlimit:4;stroke-dasharray:none;stroke-opacity:1"
       d="m 7028.5269,2734.26 c -0.855,0 -1.7091,0.021 -2.5632,0.065 -6.4699,0.3256 -12.8107,1.9281 -18.6472,4.7163 l -254.4235,121.5651 c -13.34,6.3706 -23.0289,18.42 -26.3247,32.7362 l -62.7655,273.0683 c -2.9284,12.7108 -0.5473,26.0563 6.6034,36.997 0.8587,1.324 1.7819,2.6069 2.7669,3.8412 l 103.7044,128.9405 212.9788,-23.1837 h 5.4787 66.3237 5.4813 l 212.9522,23.1789 103.702,-129.0028 c 9.239,-11.4825 12.7023,-26.5136 9.4063,-40.8358 l -62.8662,-273.0683 c -3.2963,-14.3155 -12.9851,-26.3638 -26.3247,-32.7339 l -254.457,-121.5027 c -6.5599,-3.1341 -13.7444,-4.768 -21.0257,-4.7811 z m -0.3021,73.1046 c 1.5522,-0.086 3.1468,0.6832 3.6133,2.4241 0.9476,3.4675 2.2736,7.3505 3.8867,9.5862 2.5788,3.5745 5.4414,9.9487 5.7786,15.1656 0.3907,6.0411 4.3941,7.9328 5.1479,12.9622 0.3857,2.5493 0.3397,5.111 0.1678,7.2099 -0.07,0.8598 0.5448,1.5538 1.4075,1.5538 h 6.9942 a 1.0020833,1.0020833 0 0 1 0.9087,1.4194 l -2.8508,6.2197 a 1.0020833,1.0020833 0 0 0 0.9111,1.4195 h 6.3156 a 1.562151,1.562151 0 0 1 1.561,1.5633 v 6.5362 a 2.840636,2.840636 0 0 1 -1.3189,2.3977 l -14.2761,9.0539 a 2.7151994,2.7151994 0 0 0 -1.2588,2.3978 l 16.439,425.7247 h -66.3214 l 16.4413,-425.7247 a 2.7151926,2.7151926 0 0 0 -1.2589,-2.3978 l -14.2761,-9.0539 a 2.8406471,2.8406471 0 0 1 -1.3187,-2.3977 v -6.5362 a 1.562151,1.562151 0 0 1 1.5633,-1.5633 h 6.3157 a 1.0020833,1.0020833 0 0 0 0.9087,-1.4195 l -2.8509,-6.2197 a 1.0020833,1.0020833 0 0 1 0.9111,-1.4194 h 4.0882 c 0.8628,0 1.5824,-0.699 1.6424,-1.5586 0.7501,-10.7378 5.1411,-10.6514 6.8504,-16.753 1.3989,-4.9937 0.4522,-9.7095 3.3112,-16.2902 1.8184,-4.1858 4.9142,-8.9059 7.5745,-12.6024 0.6052,-1.0483 1.785,-1.631 2.9924,-1.6976 z m -174.6654,51.2276 c 0.3343,-0.012 0.6701,-9e-4 1.0047,0.022 3.2128,0.2155 6.3777,1.8321 8.2434,5.0952 l 110.5979,193.437 c 2.9212,5.1093 -1.3794,11.3268 -7.1909,10.3967 l -220.0232,-35.2179 c -9.8972,-1.5842 -12.0902,-15.9553 -2.6111,-19.2131 l 37.4094,-12.8567 c 0,0 17.8814,-6.1484 37.4118,-12.8638 19.5304,-6.7154 28.4538,-19.6193 27.845,-40.2628 -0.6089,-20.6436 -1.1653,-39.5458 -1.1653,-39.5458 l -1.1725,-39.5386 c -0.1741,-5.8703 4.6367,-9.3375 9.6508,-9.4518 z m 349.8797,0 c 5.0141,0.1141 9.8248,3.5815 9.6509,9.4518 l -1.1725,39.5386 c 0,0 -0.5564,18.9022 -1.1653,39.5458 -0.6088,20.6435 8.3144,33.5474 27.8448,40.2628 19.5304,6.7154 37.4143,12.8638 37.4143,12.8638 l 37.407,12.8567 c 9.4791,3.2578 7.2862,17.6289 -2.611,19.2131 l -220.0234,35.2179 c -5.8115,0.9302 -10.1095,-5.2873 -7.1883,-10.3967 l 110.5955,-193.437 c 1.8656,-3.2631 5.0306,-4.8797 8.2433,-5.0952 0.3347,-0.022 0.6705,-0.03 1.0047,-0.022 z M 6798.824,2911.22 a 32.800208,32.800208 0 0 1 18.5537,5.8241 32.800208,32.800208 0 0 1 8.3201,45.6336 32.800208,32.800208 0 0 1 -45.6337,8.3202 32.800208,32.800208 0 0 1 -8.3201,-45.636 32.800208,32.800208 0 0 1 27.08,-14.1419 z m 459.3505,0 a 32.800208,32.800208 0 0 1 27.0801,14.1419 32.800208,32.800208 0 0 1 -8.3201,45.636 32.800208,32.800208 0 0 1 -45.6337,-8.3202 32.800208,32.800208 0 0 1 8.3201,-45.636 32.800208,32.800208 0 0 1 18.5536,-5.8217 z m -290.6987,193.0487 c 5.5452,-0.2092 8.8618,6.098 5.546,10.5477 L 6847.486,3283.281 c -5.6469,7.578 -18.6124,3.1335 -17.1942,-6.2101 l 5.5987,-36.8747 5.5915,-36.8819 c 2.9198,-19.2527 -3.9635,-32.3441 -21.4789,-40.8526 -17.5153,-8.5087 -33.5538,-16.2998 -33.5538,-16.2998 l -33.5491,-16.2926 c -8.5011,-4.1282 -4.8115,-17.3273 4.6324,-17.6833 z m 122.047,0 209.9432,7.9173 c 9.4438,0.356 13.1335,13.5551 4.6323,17.6833 l -33.549,16.2926 c 0,0 -16.0385,7.7911 -33.5539,16.2998 -17.5153,8.5085 -24.3987,21.5999 -21.4789,40.8526 l 5.5939,36.8819 5.5963,36.8747 c 1.4183,9.3436 -11.5473,13.7881 -17.1942,6.2101 l -125.5357,-168.4646 c -3.3159,-4.4497 7e-4,-10.7569 5.546,-10.5477 z m -292.9455,65.6212 a 30.926287,30.926287 0 0 1 27.442,16.5348 30.926287,30.926287 0 0 1 -12.9813,41.7637 30.926287,30.926287 0 0 1 -41.7661,-12.9813 30.926287,30.926287 0 0 1 12.9838,-41.7638 30.926287,30.926287 0 0 1 14.3216,-3.5534 z m 463.844,0 a 30.926287,30.926287 0 0 1 14.324,3.5534 30.926287,30.926287 0 0 1 12.9814,41.7638 30.926287,30.926287 0 0 1 -41.7662,12.9836 30.926287,30.926287 0 0 1 -12.9813,-41.766 30.926287,30.926287 0 0 1 27.4421,-16.5348 z"
       inkscape:export-filename="/Users/zufar.dhiyaulhaq/Documents/Github/kubernetes-community-days/2022/logo/kcd_indonesia_2022_logo_notext_color.png"
       inkscape:export-xdpi="96"
       inkscape:export-ydpi="96" />
  </g>
</svg>
