<?xml version="1.0" encoding="UTF-8" standalone="no"?>
<svg
   xmlns:dc="http://purl.org/dc/elements/1.1/"
   xmlns:cc="http://creativecommons.org/ns#"
   xmlns:rdf="http://www.w3.org/1999/02/22-rdf-syntax-ns#"
   xmlns:svg="http://www.w3.org/2000/svg"
   xmlns="http://www.w3.org/2000/svg"
   xmlns:sodipodi="http://sodipodi.sourceforge.net/DTD/sodipodi-0.dtd"
   xmlns:inkscape="http://www.inkscape.org/namespaces/inkscape"
   inkscape:export-ydpi="460.95001"
   inkscape:export-xdpi="460.95001"
   inkscape:export-filename="/home/thockin/src/kubernetes/new.png"
   sodipodi:docname="kcd_indonesia_2022_logo_FIN_white.svg"
   inkscape:version="1.0.1 (3bc2e813f5, 2020-09-07)"
   version="1.1"
   id="svg2"
   height="701.96637"
   width="722.8457">
  <defs
     id="defs4">
    <inkscape:path-effect
       effect="fillet_chamfer"
       id="path-effect1695"
       is_visible="true"
       lpeversion="1"
       satellites_param="F,0,0,1,0,0,0,1 @ F,0,0,1,0,0,0,1 @ F,0,1,1,0,1.2724835,0,1 @ F,0,1,1,0,1.2724835,0,1 @ F,0,1,1,0,1.2724835,0,1 @ F,0,1,1,0,1.2724835,0,1 @ F,0,1,1,0,1.2724835,0,1 @ F,0,1,1,0,1.2724835,0,1 @ F,0,0,1,0,0,0,1 @ F,0,0,1,0,0,0,1 @ F,0,1,1,0,1.2724835,0,1 @ F,0,1,1,0,1.2724835,0,1 @ F,0,1,1,0,1.2724835,0,1 @ F,0,1,1,0,1.2724835,0,1 @ F,0,1,1,0,1.2724835,0,1 @ F,0,1,1,0,1.2724835,0,1 @ F,0,0,1,0,0,0,1 @ F,0,0,1,0,0,0,1 @ F,0,0,1,0,0,0,1 @ F,0,0,1,0,0,0,1 @ F,0,0,1,0,0,0,1"
       unit="px"
       method="auto"
       mode="F"
       radius="0"
       chamfer_steps="1"
       flexible="false"
       use_knot_distance="true"
       apply_no_radius="true"
       apply_with_radius="true"
       only_selected="false"
       hide_knots="false" />
    <inkscape:path-effect
       effect="fillet_chamfer"
       id="path-effect1690"
       is_visible="true"
       lpeversion="1"
       satellites_param="F,0,0,1,0,0,0,1 @ F,0,0,1,0,0,0,1 @ F,0,1,1,0,1.2724835,0,1 @ F,0,1,1,0,1.2724835,0,1 @ F,0,1,1,0,1.2724835,0,1 @ F,0,1,1,0,1.2724835,0,1 @ F,0,1,1,0,1.2724835,0,1 @ F,0,1,1,0,1.2724835,0,1 @ F,0,0,1,0,0,0,1 @ F,0,0,1,0,0,0,1 @ F,0,1,1,0,1.2724835,0,1 @ F,0,1,1,0,1.2724835,0,1 @ F,0,1,1,0,1.2724835,0,1 @ F,0,1,1,0,1.2724835,0,1 @ F,0,1,1,0,1.2724835,0,1 @ F,0,1,1,0,1.2724835,0,1 @ F,0,0,1,0,0,0,1 @ F,0,0,1,0,0,0,1 @ F,0,0,1,0,0,0,1 @ F,0,0,1,0,0,0,1 @ F,0,0,1,0,0,0,1"
       unit="px"
       method="auto"
       mode="F"
       radius="0"
       chamfer_steps="1"
       flexible="false"
       use_knot_distance="true"
       apply_no_radius="true"
       apply_with_radius="true"
       only_selected="false"
       hide_knots="false" />
    <inkscape:path-effect
       effect="fillet_chamfer"
       id="path-effect1753"
       is_visible="true"
       lpeversion="1"
       satellites_param="F,0,0,1,0,0,0,1 @ F,0,0,1,0,0,0,1 @ F,0,1,1,0,1.2724835,0,1 @ F,0,1,1,0,1.2724835,0,1 @ F,0,1,1,0,1.2724835,0,1 @ F,0,1,1,0,1.2724835,0,1 @ F,0,1,1,0,1.2724835,0,1 @ F,0,1,1,0,1.2724835,0,1 @ F,0,0,1,0,0,0,1 @ F,0,0,1,0,0,0,1 @ F,0,1,1,0,1.2724835,0,1 @ F,0,1,1,0,1.2724835,0,1 @ F,0,1,1,0,1.2724835,0,1 @ F,0,1,1,0,1.2724835,0,1 @ F,0,1,1,0,1.2724835,0,1 @ F,0,1,1,0,1.2724835,0,1 @ F,0,0,1,0,0,0,1 @ F,0,0,1,0,0,0,1 @ F,0,0,1,0,0,0,1 @ F,0,0,1,0,0,0,1 @ F,0,0,1,0,0,0,1"
       unit="px"
       method="auto"
       mode="F"
       radius="0"
       chamfer_steps="1"
       flexible="false"
       use_knot_distance="true"
       apply_no_radius="true"
       apply_with_radius="true"
       only_selected="false"
       hide_knots="false" />
    <inkscape:path-effect
       effect="fillet_chamfer"
       id="path-effect1784"
       is_visible="true"
       lpeversion="1"
       satellites_param="F,0,1,1,0,41.258038,0,1 @ F,0,0,1,0,18.04464,0,1 @ F,0,0,1,0,41.258038,0,1 @ F,0,0,1,0,18.04464,0,1"
       unit="px"
       method="auto"
       mode="F"
       radius="0"
       chamfer_steps="1"
       flexible="false"
       use_knot_distance="true"
       apply_no_radius="true"
       apply_with_radius="true"
       only_selected="false"
       hide_knots="false" />
  </defs>
  <sodipodi:namedview
     id="base"
     pagecolor="#ffffff"
     bordercolor="#666666"
     borderopacity="1.0"
     inkscape:pageopacity="0.0"
     inkscape:pageshadow="2"
     inkscape:zoom="0.43238889"
     inkscape:cx="6722.6649"
     inkscape:cy="2866.8721"
     inkscape:document-units="px"
     inkscape:current-layer="layer1"
     showgrid="false"
     inkscape:window-width="1920"
     inkscape:window-height="1057"
     inkscape:window-x="-8"
     inkscape:window-y="-8"
     inkscape:window-maximized="1"
     inkscape:snap-global="true"
     fit-margin-top="10"
     fit-margin-left="10"
     fit-margin-right="10"
     fit-margin-bottom="10"
     inkscape:document-rotation="0"
     inkscape:object-paths="false"
     inkscape:snap-smooth-nodes="true"
     inkscape:snap-intersection-paths="false"
     showguides="true"
     inkscape:guide-bbox="true"
     inkscape:snap-to-guides="true" />
  <metadata
     id="metadata7">
    <rdf:RDF>
      <cc:Work
         rdf:about="">
        <dc:format>image/svg+xml</dc:format>
        <dc:type
           rdf:resource="http://purl.org/dc/dcmitype/StillImage" />
        <dc:title></dc:title>
      </cc:Work>
    </rdf:RDF>
  </metadata>
  <g
     inkscape:label="Layer 1"
     inkscape:groupmode="layer"
     id="layer1"
     transform="translate(-6.3260942,-174.7524)">
    <path
       id="rect1668"
       style="fill:#000000;fill-opacity:1;fill-rule:evenodd;stroke:none;stroke-width:8;stroke-linecap:round;stroke-linejoin:round;stroke-miterlimit:4;stroke-dasharray:none;stroke-opacity:1;stop-color:#000000"
       d="m 6488.4995,2488.175 h 1080 v 1080 h -1080 z" />
    <path
       id="path2207"
       style="color:#000000;font-style:normal;font-variant:normal;font-weight:500;font-stretch:normal;font-size:110.524px;line-height:1;font-family:Ubuntu;-inkscape-font-specification:'Ubuntu, Medium';font-variant-ligatures:normal;font-variant-position:normal;font-variant-caps:normal;font-variant-numeric:normal;font-variant-alternates:normal;font-variant-east-asian:normal;font-feature-settings:normal;font-variation-settings:normal;text-indent:0;text-align:center;text-decoration:none;text-decoration-line:none;text-decoration-style:solid;text-decoration-color:#000000;letter-spacing:0px;word-spacing:0px;text-transform:none;writing-mode:lr-tb;direction:ltr;text-orientation:mixed;dominant-baseline:auto;baseline-shift:baseline;text-anchor:middle;white-space:normal;shape-padding:0;shape-margin:0;inline-size:0;clip-rule:nonzero;display:inline;overflow:visible;visibility:visible;isolation:auto;mix-blend-mode:normal;color-interpolation:sRGB;color-interpolation-filters:linearRGB;solid-color:#000000;solid-opacity:1;vector-effect:none;fill:#ffffff;fill-opacity:1;fill-rule:nonzero;stroke:none;stroke-width:1;stroke-linecap:butt;stroke-linejoin:miter;stroke-miterlimit:4;stroke-dasharray:none;stroke-dashoffset:0;stroke-opacity:1;color-rendering:auto;image-rendering:auto;shape-rendering:auto;text-rendering:auto;enable-background:accumulate;stop-color:#000000"
       d="m 7340.0092,3302.1704 -0,0 c -8.2597,0 -14.8539,2.0316 -19.709,6.1347 -4.8593,4.0325 -7.3027,9.6747 -7.3027,16.7754 0,3.3995 0.5566,6.3354 1.6894,8.795 v 0.01 0.01 c 1.1931,2.4286 2.7262,4.5249 4.5977,6.2773 1.9343,1.7416 4.1274,3.2175 6.5762,4.4258 h 0.01 0.01 c 2.4942,1.1199 5.0612,2.1646 7.7012,3.1348 h 0.01 0.012 c 2.6146,0.887 4.9349,1.8112 6.9589,2.7676 h 0.01 0.01 c 2.0131,0.8781 3.6902,1.8608 5.0351,2.9414 l 0.012,0.01 0.012,0.01 c 1.4104,1.0048 2.4474,2.1375 3.1367,3.4004 l 0.01,0.01 0.01,0.012 c 0.7508,1.2503 1.1328,2.7508 1.1328,4.5371 0,3.0011 -1.0499,5.2282 -3.1972,6.8496 -2.1239,1.6038 -5.6358,2.4629 -10.545,2.4629 -4.7083,0 -8.7089,-0.5536 -12.0019,-1.6465 -3.3402,-1.1084 -5.982,-2.2164 -7.9102,-3.3067 l -0.5195,-0.2929 -4.3887,12.4336 0.3535,0.209 c 0.9004,0.5346 2.082,1.1349 3.5528,1.8086 l 0.01,0.01 h 0.012 c 1.4796,0.6024 3.2098,1.2007 5.1933,1.7988 2.0683,0.6015 4.3871,1.0868 6.9571,1.461 0,4e-4 -3e-4,0 0.01,0 2.6589,0.4502 5.5667,0.6758 8.7266,0.6758 9.4164,0 16.6186,-1.9069 21.5625,-5.795 5.0086,-3.9562 7.5293,-9.5677 7.5293,-16.6718 0,-3.6874 -0.5156,-6.8335 -1.5684,-9.4375 -1.0464,-2.6609 -2.5847,-4.9531 -4.6054,-6.8594 -1.945,-1.9778 -4.3675,-3.6444 -7.2579,-5.002 -2.793,-1.4207 -5.9803,-2.7991 -9.5683,-4.1406 -2.0308,-0.7382 -3.9138,-1.5124 -5.6504,-2.3223 h -0.01 c -1.6493,-0.8033 -3.1134,-1.6771 -4.3965,-2.6191 -1.1952,-0.9306 -2.1335,-1.9583 -2.8281,-3.0859 -0.6086,-1.1779 -0.9219,-2.5739 -0.9219,-4.211 0,-2.7029 0.9414,-4.7052 2.8692,-6.1777 2.0051,-1.4755 4.8091,-2.2402 8.4609,-2.2402 3.1012,0 6.0908,0.3668 8.9707,1.0996 2.9541,0.7333 5.649,1.7933 8.0899,3.1816 l 0.5097,0.291 4.625,-12.3144 -0.3574,-0.2129 c -2.1744,-1.2972 -5.1295,-2.4587 -8.875,-3.5059 -3.7098,-1.1327 -7.9596,-1.6933 -12.7461,-1.6933 z m -342.3398,0.9941 0,0.012 c -3.0111,0 -6.4203,0.1511 -10.2285,0.4492 -3.8179,0.2247 -7.4195,0.71 -10.8047,1.459 l -0.3926,0.086 v 77.0566 h 14.8047 v -29.2129 h 6.1816 2.0821 c 0.6681,0 1.4886,-0.042 2.3828,-0.1015 1.3424,1.7333 2.7784,3.6859 4.3281,5.9082 1.5991,2.2193 3.1996,4.6243 4.8008,7.2168 v 0.01 l 0.01,0.01 c 1.6743,2.5189 3.3119,5.1501 4.9141,7.8926 1.6016,2.6674 3.0939,5.3335 4.4766,8 l 0.1386,0.2695 h 16.5274 l -0.3203,-0.7051 c -1.3204,-2.9117 -2.8245,-5.8603 -4.5098,-8.8437 v -0.01 c -1.6835,-3.0539 -3.4412,-5.9965 -5.2715,-8.8281 -1.8304,-2.9064 -3.6235,-5.5908 -5.3828,-8.0528 -1.6121,-2.256 -3.0314,-4.1157 -4.3398,-5.75 9.8723,-3.8369 14.9492,-11.0805 14.9492,-21.5 0,-8.5151 -3.0007,-14.96 -8.9746,-19.1406 -5.8917,-4.174 -14.3581,-6.2246 -25.375,-6.2246 z m -135.4082,0.012 c -1.6872,0 -3.4821,0.039 -5.3868,0.1133 -1.8325,0.075 -3.7004,0.1868 -5.6054,0.3359 -1.9124,0.1497 -3.7889,0.3742 -5.6289,0.6739 -1.8272,0.2236 -3.5481,0.4829 -5.1602,0.7812 l -0.4082,0.076 v 75.8398 l 0.3711,0.1 c 3.1075,0.8283 6.7158,1.3513 10.8281,1.5761 4.1018,0.2981 8.1678,0.4473 12.1973,0.4473 11.8148,0 20.6394,-1.9669 26.4687,-5.9981 5.824,-4.1035 8.7559,-10.2882 8.7559,-18.3613 0,-4.761 -1.1169,-8.7424 -3.3789,-11.8887 -2.1097,-2.9345 -5.3961,-5.1139 -9.5996,-6.6894 2.7286,-1.5382 4.9682,-3.4668 6.5391,-5.8965 1.8123,-2.6909 2.7128,-5.9211 2.7128,-9.6426 0,-4.0077 -0.8179,-7.4127 -2.4804,-10.1816 -1.6518,-2.7509 -3.9857,-4.9698 -6.9727,-6.6426 -2.9065,-1.668 -6.3564,-2.8349 -10.3418,-3.5117 h -0.01 c -3.9767,-0.7489 -8.2771,-1.1231 -12.9024,-1.1231 z m 196.0996,0.7676 -11.9981,0.014 v 78.2695 h 14.586 v -54.3281 c 2.8019,3.446 5.689,7.1712 8.7343,11.416 3.4269,4.6007 6.7828,9.3886 10.0645,14.3613 3.2838,4.9017 6.4568,9.8036 9.5215,14.7051 3.0649,4.8274 5.8367,9.3568 8.3164,13.5879 l 0.1465,0.2461 h 0.2851 12.2227 v -78.2695 h -14.6934 v 50.1289 c -2.2889,-3.6433 -4.7625,-7.4372 -7.6308,-11.5508 l -0.01,-0.01 c -3.1424,-4.6853 -6.4312,-9.3346 -9.8652,-13.9453 v -0.01 c -3.3609,-4.6103 -6.7225,-9.0359 -10.084,-13.2754 -3.3656,-4.3186 -6.5138,-8.0467 -9.4473,-11.1816 z m -280.9512,0 -14.9062,0.01 v 48.7793 c 0,4.5038 0.5896,8.6448 1.7753,12.416 1.1875,3.7769 3.0133,7.0748 5.4707,9.8789 2.5351,2.8077 5.7053,5.0075 9.4903,6.5937 3.7991,1.5162 8.3173,2.2657 13.5508,2.2657 5.2333,0 9.7883,-0.7509 13.6582,-2.2657 3.8591,-1.5861 7.0329,-3.7885 9.498,-6.6015 2.5279,-2.8012 4.3884,-6.0974 5.5762,-9.8711 1.2606,-3.7737 1.8887,-7.9173 1.8887,-12.4238 v -48.7793 h -14.9141 v 47.4414 c 0,3.4554 -0.3984,6.4169 -1.1816,8.8808 -0.7127,2.3934 -1.7741,4.3263 -3.1739,5.8223 v 0.01 c -1.3357,1.5026 -2.9416,2.604 -4.8418,3.3203 -1.9091,0.7196 -4.0396,1.084 -6.3984,1.084 -2.3588,0 -4.4874,-0.3644 -6.3965,-1.084 -1.8254,-0.7157 -3.4359,-1.82 -4.8477,-3.3281 -1.3262,-1.495 -2.3872,-3.4291 -3.1718,-5.8184 -0.7127,-2.4676 -1.0762,-5.4314 -1.0762,-8.8887 z m -70.8887,0.01 -14.791,0 v 78.2695 h 14.8047 v -34.1191 c 2.5745,1.8711 5.1717,3.9572 7.8125,6.4433 2.9103,2.7399 5.7117,5.6275 8.4043,8.6641 2.7654,3.0367 5.3851,6.1846 7.8594,9.4433 2.4763,3.2614 4.6604,6.3719 6.5508,9.3321 l 0.1464,0.2305 h 0.2754 17.211 l -0.459,-0.7579 c -2.3437,-3.8761 -4.9446,-7.7514 -7.7988,-11.625 l -0.01,-0.01 c -2.7817,-3.9479 -5.7104,-7.7104 -8.7852,-11.2871 -3.0741,-3.6498 -6.2231,-7.0389 -9.4453,-10.17 -3.0152,-3.0686 -5.9945,-5.7137 -8.9492,-8.0371 2.6608,-2.6461 5.3511,-5.4087 8.0781,-8.3261 v -0.01 c 2.9212,-3.0475 5.8059,-6.095 8.6543,-9.1426 2.8499,-3.1237 5.6281,-6.2102 8.3321,-9.2597 2.7043,-3.0499 5.2613,-5.9891 7.6738,-8.8165 l 0.7051,-0.8242 h -17.8536 l -0.1484,0.1699 c -1.8996,2.1563 -4.018,4.5716 -6.3555,7.2481 -2.335,2.6734 -4.8178,5.4586 -7.4453,8.3555 -2.5547,2.823 -5.1455,5.6457 -7.7734,8.4687 -2.3279,2.435 -4.5377,4.7088 -6.6934,6.9102 z m 205.5274,0 v 78.2695 h 0.5 51.8808 v -12.9297 h -37.5781 v -21.6347 h 31.1152 v -12.7071 h -31.1152 v -18.0664 h 34.9492 v -12.9316 z m 213.3867,0 v 78.2695 h 0.5 51.8809 v -12.9297 h -37.5782 v -21.6347 h 31.1153 v -12.7071 h -31.1153 v -18.0664 h 34.9492 v -12.9316 z m 56.5293,0 v 13.1543 h 23.3359 v 65.1152 h 14.9141 v -65.1152 h 23.3359 v -13.1543 h -0.5 z m 71.1016,0 v 78.2695 h 0.5 51.8828 v -12.9297 h -37.5782 v -21.6347 h 31.1133 v -12.7071 h -31.1133 v -18.0664 h 34.9493 v -12.9316 z m -389.0547,11.7031 0,0 c 4.9142,0 8.8538,0.7756 11.8242,2.2871 2.9989,1.4906 4.4336,3.8929 4.4336,7.4687 0,3.8113 -1.38,6.3231 -4.2188,7.8047 -2.8899,1.4337 -6.9428,2.1758 -12.1523,2.1758 h -9.252 v -19.332 c 1.0709,-0.1241 2.2582,-0.2308 3.6856,-0.2969 1.6706,-0.074 3.5636,-0.1094 5.6758,-0.1094 z m 134.6504,0.6602 -0,0.01 c 2.6749,0 5.1265,0.2215 7.3536,0.6602 h 0.01 0.01 c 2.2144,0.3635 4.0887,1.0159 5.6309,1.9433 1.6067,0.9243 2.8095,2.1509 3.6425,3.7051 0.8288,1.5463 1.2559,3.4679 1.2559,5.7852 0,2.4695 -0.4301,4.467 -1.2559,6.0078 -0.8303,1.5492 -2.0649,2.7754 -3.7441,3.7012 -1.609,0.9255 -3.667,1.5803 -6.1777,1.9453 -2.5254,0.3672 -5.4595,0.5527 -8.8008,0.5527 h -5.5254 v -23.998 c 2.3498,-0.1971 4.8617,-0.3125 7.6055,-0.3125 z m -144.0079,31.1191 h 11.6622 c 5.4995,0 9.7648,0.8533 12.7968,2.5039 2.983,1.6238 4.4512,4.4368 4.4512,8.7031 0,2.3786 -0.5278,4.2742 -1.5527,5.7344 l -0.01,0.01 v 0.01 c -0.9737,1.4864 -2.3263,2.6908 -4.0879,3.6231 -1.6919,0.8601 -3.7554,1.4785 -6.1953,1.8437 -2.3809,0.3671 -4.9838,0.5528 -7.8106,0.5528 -1.4522,0 -3.0537,-0.037 -4.8007,-0.1114 -1.5844,-0.067 -3.0494,-0.1728 -4.4512,-0.3007 z" />
    <path
       id="path1956"
       style="font-style:normal;font-variant:normal;font-weight:500;font-stretch:normal;font-size:39.2976px;line-height:1;font-family:Ubuntu;-inkscape-font-specification:'Ubuntu, Medium';font-variant-ligatures:normal;font-variant-caps:normal;font-variant-numeric:normal;font-variant-east-asian:normal;text-align:center;letter-spacing:0.921037px;word-spacing:0px;text-anchor:middle;fill:#ffffff;fill-opacity:1;stroke:none;stroke-width:1;stroke-miterlimit:4;stroke-dasharray:none;stroke-opacity:1"
       d="m 6698.309,3400.8129 c -1.8573,0 -3.5968,0.3137 -5.2187,0.9434 -1.6219,0.6297 -3.0349,1.5619 -4.2383,2.7949 -1.2033,1.2069 -2.1589,2.6894 -2.8652,4.4473 -0.6802,1.7578 -1.0196,3.7779 -1.0196,6.0605 0,2.2826 0.3007,4.3027 0.9024,6.0606 0.6016,1.7579 1.465,3.2532 2.5898,4.4863 1.1249,1.2069 2.4991,2.1262 4.1211,2.7559 1.6219,0.6296 3.4517,0.9433 5.4922,0.9433 1.0464,0 2.0278,-0.066 2.9434,-0.1972 0.9156,-0.1049 1.7402,-0.248 2.4726,-0.4317 0.7326,-0.2099 1.3597,-0.4209 1.8828,-0.6308 0.5494,-0.2099 0.9811,-0.4191 1.295,-0.6289 l -1.334,-4.0528 c -0.6017,0.3149 -1.4521,0.6542 -2.5508,1.0215 -1.0987,0.3411 -2.5246,0.5117 -4.2774,0.5117 -1.4649,0 -2.7192,-0.2347 -3.7656,-0.707 -1.0464,-0.4985 -1.9096,-1.1811 -2.5898,-2.0469 -0.6802,-0.892 -1.1911,-1.9415 -1.5313,-3.1484 -0.3139,-1.2069 -0.4707,-2.5316 -0.4707,-3.9746 0,-1.6267 0.2084,-3.0579 0.627,-4.291 0.4186,-1.2332 0.9941,-2.2551 1.7265,-3.0684 0.7586,-0.8134 1.6497,-1.4171 2.67,-1.8105 1.0202,-0.4198 2.1177,-0.6289 3.2949,-0.6289 1.3604,0 2.6166,0.1834 3.7676,0.5507 1.1772,0.341 2.0791,0.708 2.707,1.1016 l 1.4531,-4.0547 c -0.183,-0.1049 -0.4986,-0.2756 -0.9433,-0.5117 -0.4448,-0.2361 -1.0055,-0.458 -1.6856,-0.668 -0.6801,-0.2098 -1.4789,-0.3934 -2.3945,-0.5508 -0.9156,-0.1836 -1.9357,-0.2754 -3.0606,-0.2754 z m 25.0528,0 c -1.779,0 -3.4668,0.3009 -5.0625,0.9043 -1.5958,0.6036 -3.0088,1.51 -4.2383,2.7168 -1.2034,1.2068 -2.1589,2.7022 -2.8652,4.4864 -0.7064,1.7578 -1.0586,3.8036 -1.0586,6.1386 0,2.3352 0.3522,4.3937 1.0586,6.1778 0.7063,1.7841 1.6489,3.2814 2.8261,4.4883 1.2033,1.1806 2.6034,2.0723 4.1992,2.6757 1.6219,0.6035 3.3355,0.9043 5.1407,0.9043 1.805,0 3.5057,-0.3008 5.1015,-0.9043 1.5958,-0.6034 2.981,-1.4951 4.1582,-2.6757 1.2034,-1.2069 2.1461,-2.7042 2.8262,-4.4883 0.7063,-1.7841 1.0586,-3.8426 1.0586,-6.1778 0,-2.335 -0.3523,-4.3808 -1.0586,-6.1386 -0.7063,-1.7842 -1.6619,-3.2796 -2.8652,-4.4864 -1.1772,-1.2068 -2.5645,-2.1132 -4.1602,-2.7168 -1.5958,-0.6034 -3.2817,-0.9043 -5.0605,-0.9043 z m 308.8281,0 c -2.93,0 -5.245,0.7083 -6.9453,2.125 -1.7005,1.3906 -2.5508,3.3189 -2.5508,5.7852 0,1.1807 0.1974,2.1898 0.5898,3.0293 0.4186,0.8395 0.9535,1.5625 1.6075,2.166 0.6801,0.6034 1.453,1.1134 2.3164,1.5332 0.8894,0.3936 1.8043,0.7625 2.7461,1.1035 0.9417,0.3149 1.7792,0.6413 2.5117,0.9825 0.7325,0.3148 1.3467,0.6689 1.8437,1.0625 0.5233,0.3673 0.9162,0.7875 1.1778,1.2597 0.2876,0.4723 0.4316,1.0375 0.4316,1.6934 0,1.102 -0.4059,1.9532 -1.2168,2.5566 -0.8109,0.6034 -2.1058,0.9063 -3.8848,0.9063 -1.7003,0 -3.152,-0.1963 -4.3554,-0.5899 -1.2034,-0.3934 -2.159,-0.788 -2.8653,-1.1816 l -1.4511,4.0547 c 0.3138,0.1836 0.7326,0.3927 1.2558,0.6289 0.5232,0.2098 1.1374,0.419 1.8438,0.6289 0.7324,0.2099 1.557,0.3805 2.4726,0.5117 0.9418,0.1574 1.9748,0.2363 3.0996,0.2363 3.3486,0 5.8867,-0.6678 7.6133,-2.0058 1.7527,-1.3644 2.6289,-3.2799 2.6289,-5.7461 0,-1.2856 -0.1845,-2.3756 -0.5507,-3.2676 -0.3663,-0.9183 -0.9012,-1.7055 -1.6075,-2.3613 -0.6802,-0.6822 -1.5305,-1.2583 -2.5508,-1.7305 -0.994,-0.4985 -2.1321,-0.9847 -3.414,-1.457 -0.7325,-0.2623 -1.4132,-0.5375 -2.041,-0.8262 -0.6017,-0.2886 -1.1385,-0.6043 -1.6094,-0.9453 -0.4447,-0.3411 -0.797,-0.7208 -1.0586,-1.1406 -0.2355,-0.446 -0.3535,-0.9708 -0.3535,-1.5743 0,-0.997 0.3671,-1.7713 1.0996,-2.3222 0.7587,-0.551 1.8045,-0.8262 3.1387,-0.8262 1.1248,0 2.2113,0.1321 3.2578,0.3945 1.0725,0.2624 2.052,0.6422 2.9414,1.1407 l 1.5312,-4.0137 c -0.7586,-0.4461 -1.8044,-0.8534 -3.1386,-1.2207 -1.308,-0.3935 -2.8133,-0.5899 -4.5137,-0.5899 z m 108.0742,0 c -1.7789,0 -3.4648,0.3009 -5.0605,0.9043 -1.5958,0.6036 -3.0088,1.51 -4.2383,2.7168 -1.2034,1.2068 -2.1589,2.7022 -2.8653,4.4864 -0.7062,1.7578 -1.0585,3.8036 -1.0585,6.1386 0,2.3352 0.3523,4.3937 1.0585,6.1778 0.7064,1.7841 1.649,3.2814 2.8262,4.4883 1.2034,1.1806 2.6034,2.0723 4.1992,2.6757 1.6219,0.6035 3.3336,0.9043 5.1387,0.9043 1.8051,0 3.5058,-0.3008 5.1016,-0.9043 1.5958,-0.6034 2.9829,-1.4951 4.1601,-2.6757 1.2034,-1.2069 2.1441,-2.7042 2.8242,-4.4883 0.7064,-1.7841 1.0606,-3.8426 1.0606,-6.1778 0,-2.335 -0.3541,-4.3808 -1.0606,-6.1386 -0.7062,-1.7842 -1.6598,-3.2796 -2.8632,-4.4864 -1.1772,-1.2068 -2.5645,-2.1132 -4.1602,-2.7168 -1.5958,-0.6034 -3.2836,-0.9043 -5.0625,-0.9043 z m 81.3184,0 c -2.9299,0 -5.2449,0.7083 -6.9453,2.125 -1.7004,1.3906 -2.5508,3.3189 -2.5508,5.7852 0,1.1807 0.1955,2.1898 0.5879,3.0293 0.4186,0.8395 0.9554,1.5625 1.6093,2.166 0.6802,0.6034 1.4532,1.1134 2.3164,1.5332 0.8895,0.3936 1.8044,0.7625 2.7461,1.1035 0.9418,0.3149 1.7793,0.6413 2.5118,0.9825 0.7324,0.3148 1.3466,0.6689 1.8437,1.0625 0.5232,0.3673 0.9161,0.7875 1.1777,1.2597 0.2878,0.4723 0.4317,1.0375 0.4317,1.6934 0,1.102 -0.4058,1.9532 -1.2168,2.5566 -0.811,0.6034 -2.106,0.9063 -3.8848,0.9063 -1.7004,0 -3.1521,-0.1963 -4.3554,-0.5899 -1.2034,-0.3934 -2.1589,-0.788 -2.8653,-1.1816 l -1.4511,4.0547 c 0.3139,0.1836 0.7327,0.3927 1.2558,0.6289 0.5233,0.2098 1.1375,0.419 1.8438,0.6289 0.7325,0.2099 1.557,0.3805 2.4726,0.5117 0.9417,0.1574 1.9747,0.2363 3.0996,0.2363 3.3485,0 5.8868,-0.6678 7.6133,-2.0058 1.7528,-1.3644 2.6289,-3.2799 2.6289,-5.7461 0,-1.2856 -0.1845,-2.3756 -0.5508,-3.2676 -0.3662,-0.9183 -0.9011,-1.7055 -1.6074,-2.3613 -0.6801,-0.6822 -1.5305,-1.2583 -2.5508,-1.7305 -0.9941,-0.4985 -2.1323,-0.9847 -3.414,-1.457 -0.7326,-0.2623 -1.4132,-0.5375 -2.041,-0.8262 -0.6017,-0.2886 -1.1386,-0.6043 -1.6094,-0.9453 -0.4448,-0.3411 -0.797,-0.7208 -1.0586,-1.1406 -0.2354,-0.446 -0.3535,-0.9708 -0.3535,-1.5743 0,-0.997 0.3671,-1.7713 1.0996,-2.3222 0.7586,-0.551 1.8044,-0.8262 3.1386,-0.8262 1.1249,0 2.2095,0.1321 3.2559,0.3945 1.0725,0.2624 2.0539,0.6422 2.9434,1.1407 l 1.5312,-4.0137 c -0.7586,-0.4461 -1.8045,-0.8534 -3.1387,-1.2207 -1.308,-0.3935 -2.8132,-0.5899 -4.5136,-0.5899 z m 71.4863,0 c -1.7005,0 -3.296,0.3266 -4.7871,0.9825 -1.465,0.6297 -2.747,1.47 -3.8457,2.5195 l 2.3535,3.3457 c 0.1831,-0.1837 0.458,-0.4204 0.8242,-0.709 0.3663,-0.3148 0.785,-0.6157 1.2559,-0.9043 0.497,-0.2886 1.0597,-0.5382 1.6875,-0.748 0.6279,-0.21 1.3086,-0.3145 2.041,-0.3145 1.1249,0 2.0785,0.288 2.8633,0.8653 0.7848,0.5771 1.1777,1.5477 1.1777,2.9121 0,0.6296 -0.131,1.2461 -0.3926,1.8496 -0.2616,0.5772 -0.6138,1.1551 -1.0586,1.7324 -0.4185,0.5509 -0.9165,1.1142 -1.4921,1.6914 -0.5755,0.5772 -1.1769,1.168 -1.8047,1.7715 -0.811,0.7871 -1.6226,1.5871 -2.4336,2.4004 -0.811,0.8133 -1.5433,1.6793 -2.1973,2.5976 -0.654,0.9184 -1.1888,1.9146 -1.6074,2.9903 -0.3923,1.0494 -0.5899,2.2035 -0.5899,3.4629 v 0.7089 c 0,0.2886 0.013,0.5382 0.039,0.7481 h 17.3047 v -4.0137 h -12.0859 c 0.026,-0.341 0.2106,-0.7613 0.5507,-1.2597 0.3401,-0.5248 0.744,-1.0624 1.2149,-1.6133 0.4709,-0.551 0.969,-1.1034 1.4922,-1.6543 0.5232,-0.551 0.9935,-1.0225 1.4121,-1.416 0.7848,-0.7609 1.5706,-1.5352 2.3554,-2.3223 0.7848,-0.8133 1.4765,-1.6389 2.0782,-2.4785 0.6278,-0.8658 1.1388,-1.7447 1.5312,-2.6367 0.3924,-0.9183 0.5879,-1.8504 0.5879,-2.795 0,-2.3876 -0.6916,-4.2626 -2.0781,-5.6269 -1.3603,-1.3905 -3.4928,-2.086 -6.3965,-2.086 z m 23.9531,0 c -1.4649,0 -2.7857,0.3137 -3.9629,0.9434 -1.151,0.6297 -2.1453,1.5491 -2.9824,2.7559 -0.811,1.2069 -1.4401,2.7022 -1.8848,4.4863 -0.4186,1.7578 -0.6269,3.7779 -0.6269,6.0605 0,4.5915 0.8374,8.1197 2.5117,10.586 1.6743,2.44 3.9893,3.6601 6.9453,3.6601 2.9562,0 5.2711,-1.2201 6.9453,-3.6601 1.6743,-2.4663 2.5118,-5.9945 2.5118,-10.586 0,-4.5914 -0.8375,-8.1068 -2.5118,-10.5468 -1.6742,-2.4662 -3.9891,-3.6993 -6.9453,-3.6993 z m 22.4629,0 c -1.7005,0 -3.296,0.3266 -4.7871,0.9825 -1.465,0.6297 -2.747,1.47 -3.8457,2.5195 l 2.3535,3.3457 c 0.1832,-0.1837 0.458,-0.4204 0.8242,-0.709 0.3663,-0.3148 0.7851,-0.6157 1.2559,-0.9043 0.4971,-0.2886 1.0596,-0.5382 1.6875,-0.748 0.6279,-0.21 1.3085,-0.3145 2.041,-0.3145 1.1249,0 2.0785,0.288 2.8633,0.8653 0.7848,0.5771 1.1777,1.5477 1.1777,2.9121 0,0.6296 -0.131,1.2461 -0.3925,1.8496 -0.2617,0.5772 -0.614,1.1551 -1.0586,1.7324 -0.4186,0.5509 -0.9168,1.1142 -1.4922,1.6914 -0.5756,0.5772 -1.1769,1.168 -1.8047,1.7715 -0.811,0.7871 -1.6227,1.5871 -2.4336,2.4004 -0.811,0.8133 -1.5433,1.6793 -2.1973,2.5976 -0.654,0.9184 -1.1888,1.9146 -1.6074,2.9903 -0.3923,1.0494 -0.5898,2.2035 -0.5898,3.4629 v 0.7089 c 0,0.2886 0.013,0.5382 0.039,0.7481 h 17.3047 v -4.0137 h -12.0859 c 0.026,-0.341 0.2107,-0.7613 0.5508,-1.2597 0.34,-0.5248 0.7439,-1.0624 1.2148,-1.6133 0.4709,-0.551 0.969,-1.1034 1.4922,-1.6543 0.5232,-0.551 0.9935,-1.0225 1.4121,-1.416 0.7847,-0.7609 1.5707,-1.5352 2.3555,-2.3223 0.7848,-0.8133 1.4764,-1.6389 2.0781,-2.4785 0.6278,-0.8658 1.1388,-1.7447 1.5312,-2.6367 0.3925,-0.9183 0.5879,-1.8504 0.5879,-2.795 h 0 c 0,-2.3876 -0.6936,-4.2626 -2.0801,-5.6269 -1.3603,-1.3905 -3.4928,-2.086 -6.3965,-2.086 z m 23.207,0 c -1.7004,0 -3.2959,0.3266 -4.7871,0.9825 -1.4649,0.6297 -2.7469,1.47 -3.8457,2.5195 l 2.3555,3.3457 c 0.1831,-0.1837 0.458,-0.4204 0.8242,-0.709 0.3663,-0.3148 0.7851,-0.6157 1.2559,-0.9043 0.497,-0.2886 1.0596,-0.5382 1.6875,-0.748 0.6278,-0.21 1.3066,-0.3145 2.039,-0.3145 1.1249,0 2.0805,0.288 2.8653,0.8653 0.7848,0.5771 1.1777,1.5477 1.1777,2.9121 0,0.6296 -0.131,1.2461 -0.3926,1.8496 -0.2616,0.5772 -0.6158,1.1551 -1.0605,1.7324 -0.4185,0.5509 -0.9147,1.1142 -1.4902,1.6914 -0.5756,0.5772 -1.1769,1.168 -1.8047,1.7715 -0.811,0.7871 -1.6227,1.5871 -2.4336,2.4004 -0.811,0.8133 -1.5433,1.6793 -2.1973,2.5976 -0.654,0.9184 -1.1908,1.9146 -1.6094,2.9903 -0.3924,1.0494 -0.5879,2.2035 -0.5879,3.4629 v 0.7089 c 0,0.2886 0.013,0.5382 0.039,0.7481 h 17.3047 v -4.0137 h -12.0859 c 0.026,-0.341 0.2087,-0.7613 0.5488,-1.2597 0.3401,-0.5248 0.746,-1.0624 1.2168,-1.6133 0.4709,-0.551 0.9671,-1.1034 1.4902,-1.6543 0.5233,-0.551 0.9955,-1.0225 1.4141,-1.416 0.7848,-0.7609 1.5687,-1.5352 2.3535,-2.3223 0.7848,-0.8133 1.4783,-1.6389 2.0801,-2.4785 0.6278,-0.8658 1.1388,-1.7447 1.5312,-2.6367 0.3924,-0.9183 0.5879,-1.8504 0.5879,-2.795 0,-2.3876 -0.6936,-4.2626 -2.0801,-5.6269 -1.3603,-1.3905 -3.4927,-2.086 -6.3965,-2.086 z m -409.8574,0.3536 c -1.0987,0 -2.355,0.039 -3.7676,0.1171 -1.4126,0.079 -2.7462,0.2642 -4.0019,0.5528 v 26.4844 c 1.2557,0.2886 2.5764,0.474 3.9629,0.5527 1.3865,0.105 2.6298,0.1562 3.7285,0.1562 2.3021,0 4.3938,-0.2751 6.2773,-0.8261 1.9097,-0.5772 3.533,-1.4433 4.8672,-2.5977 1.3603,-1.1807 2.4062,-2.6375 3.1387,-4.3691 0.7325,-1.7579 1.0996,-3.8164 1.0996,-6.1778 0,-2.4138 -0.3671,-4.4871 -1.0996,-6.2187 -0.7325,-1.7579 -1.7784,-3.1999 -3.1387,-4.3281 -1.3342,-1.1544 -2.9427,-1.9948 -4.8261,-2.5196 -1.8836,-0.5509 -3.9643,-0.8261 -6.2403,-0.8261 z m 153.666,0 c -1.0987,0 -2.353,0.039 -3.7656,0.1171 -1.4127,0.079 -2.7482,0.2642 -4.0039,0.5528 v 26.4844 c 1.2557,0.2886 2.5783,0.474 3.9649,0.5527 1.3864,0.105 2.6278,0.1562 3.7265,0.1562 2.302,0 4.3957,-0.2751 6.2793,-0.8261 1.9097,-0.5772 3.531,-1.4433 4.8652,-2.5977 1.3603,-1.1807 2.4062,-2.6375 3.1387,-4.3691 0.7325,-1.7579 1.0996,-3.8164 1.0996,-6.1778 0,-2.4138 -0.3671,-4.4871 -1.0996,-6.2187 -0.7325,-1.7579 -1.7784,-3.1999 -3.1387,-4.3281 -1.3342,-1.1544 -2.9426,-1.9948 -4.8261,-2.5196 -1.8836,-0.5509 -3.9643,-0.8261 -6.2403,-0.8261 z m -362.3242,0.2754 c -0.2354,1.8891 -0.4587,3.9495 -0.6679,6.1796 -0.2094,2.2302 -0.4049,4.5384 -0.5879,6.9258 -0.157,2.3614 -0.3137,4.7483 -0.4707,7.1621 -0.1308,2.4138 -0.2489,4.7496 -0.3536,7.0059 h 4.8653 c 0.1046,-3.1747 0.2227,-6.4406 0.3535,-9.7988 0.157,-3.3584 0.3802,-6.6134 0.668,-9.7618 0.2877,0.5772 0.6271,1.3003 1.0195,2.1661 0.3925,0.8396 0.8112,1.7441 1.2559,2.7148 0.4447,0.9708 0.8893,1.9818 1.3339,3.0313 0.471,1.0494 0.9155,2.0713 1.334,3.0683 0.4448,0.9707 0.8506,1.8901 1.2168,2.7559 0.3662,0.8658 0.6798,1.5996 0.9414,2.2031 h 3.6895 c 0.2616,-0.6035 0.5752,-1.3245 0.9414,-2.1641 0.3663,-0.8658 0.7572,-1.785 1.1758,-2.7558 0.4446,-0.997 0.8911,-2.0189 1.3359,-3.0684 0.4708,-1.0495 0.9282,-2.0605 1.373,-3.0312 0.4448,-0.997 0.8636,-1.9143 1.2559,-2.7539 0.3925,-0.8396 0.7318,-1.5627 1.0195,-2.1661 0.2878,3.1484 0.4962,6.4034 0.627,9.7618 0.157,3.3582 0.288,6.6241 0.3926,9.7988 h 4.8672 c -0.1047,-2.2563 -0.2357,-4.5645 -0.3926,-6.9258 -0.1308,-2.3876 -0.2876,-4.7489 -0.4707,-7.084 -0.157,-2.3613 -0.3415,-4.6586 -0.5508,-6.8886 -0.2093,-2.2564 -0.4306,-4.381 -0.666,-6.375 h -4.4746 c -0.5755,0.997 -1.2155,2.217 -1.9219,3.6601 -0.7063,1.443 -1.4257,2.964 -2.1582,4.5645 -0.7325,1.5742 -1.4519,3.1889 -2.1582,4.8418 -0.7063,1.6267 -1.3612,3.1348 -1.9629,4.5253 -0.6017,-1.3905 -1.2675,-2.8986 -2,-4.5253 -0.7063,-1.6529 -1.4257,-3.2676 -2.1582,-4.8418 -0.7325,-1.6005 -1.4519,-3.1215 -2.1582,-4.5645 -0.7063,-1.4431 -1.3483,-2.6631 -1.9238,-3.6601 z m 35.6074,0 c -0.2354,1.8891 -0.4586,3.9495 -0.6679,6.1796 -0.2093,2.2302 -0.4048,4.5384 -0.5879,6.9258 -0.157,2.3614 -0.3139,4.7483 -0.4707,7.1621 -0.1308,2.4138 -0.2489,4.7496 -0.3535,7.0059 h 4.8652 c 0.1046,-3.1747 0.2226,-6.4406 0.3535,-9.7988 0.1569,-3.3584 0.3802,-6.6134 0.668,-9.7618 0.2877,0.5772 0.627,1.3003 1.0195,2.1661 0.3923,0.8396 0.8111,1.7441 1.2559,2.7148 0.4447,0.9708 0.8892,1.9818 1.334,3.0313 0.4709,1.0494 0.9155,2.0713 1.3339,3.0683 0.4448,0.9707 0.8506,1.8901 1.2168,2.7559 0.3663,0.8658 0.6798,1.5996 0.9414,2.2031 h 3.6895 c 0.2615,-0.6035 0.5751,-1.3245 0.9414,-2.1641 0.3663,-0.8658 0.7592,-1.785 1.1777,-2.7558 0.4448,-0.997 0.8894,-2.0189 1.334,-3.0684 0.471,-1.0495 0.9283,-2.0605 1.3731,-3.0312 0.4446,-0.997 0.8634,-1.9143 1.2558,-2.7539 0.3924,-0.8396 0.7318,-1.5627 1.0196,-2.1661 0.2877,3.1484 0.498,6.4034 0.6289,9.7618 0.1569,3.3582 0.2879,6.6241 0.3925,9.7988 h 4.8653 c -0.1047,-2.2563 -0.2356,-4.5645 -0.3926,-6.9258 -0.1308,-2.3876 -0.2876,-4.7489 -0.4707,-7.084 -0.1569,-2.3613 -0.3396,-4.6586 -0.5488,-6.8886 -0.2093,-2.2564 -0.4325,-4.381 -0.668,-6.375 h -4.4727 c -0.5756,0.997 -1.2175,2.217 -1.9238,3.6601 -0.7064,1.443 -1.4257,2.964 -2.1582,4.5645 -0.7325,1.5742 -1.4519,3.1889 -2.1582,4.8418 -0.7063,1.6267 -1.3593,3.1348 -1.9609,4.5253 -0.6018,-1.3905 -1.2695,-2.8986 -2.002,-4.5253 -0.7063,-1.6529 -1.4257,-3.2676 -2.1582,-4.8418 -0.7324,-1.6005 -1.4519,-3.1215 -2.1582,-4.5645 -0.7063,-1.4431 -1.3463,-2.6631 -1.9219,-3.6601 z m 34.0782,0 v 17.041 c 0,1.5742 0.2083,3.0163 0.6269,4.3281 0.4186,1.3119 1.0605,2.455 1.9239,3.4258 0.8894,0.9707 1.9998,1.7302 3.3339,2.2812 1.3342,0.5248 2.9297,0.7871 4.7871,0.7871 1.8574,0 3.4678,-0.2623 4.8282,-0.7871 1.3603,-0.551 2.4706,-1.3105 3.334,-2.2812 0.8894,-0.9708 1.5443,-2.1139 1.9628,-3.4258 0.4448,-1.3118 0.6661,-2.7539 0.6661,-4.3281 v -17.041 h -4.9825 v 16.5683 c 0,1.2331 -0.1438,2.2955 -0.4316,3.1875 -0.2615,0.8659 -0.6545,1.5741 -1.1777,2.125 -0.4971,0.551 -1.0984,0.9584 -1.8047,1.2207 -0.7063,0.2624 -1.4903,0.3945 -2.3535,0.3945 -0.8634,0 -1.6492,-0.1321 -2.3555,-0.3945 -0.6801,-0.2623 -1.2815,-0.6697 -1.8047,-1.2207 -0.4971,-0.5509 -0.89,-1.2591 -1.1777,-2.125 -0.2617,-0.892 -0.3926,-1.9544 -0.3926,-3.1875 v -16.5683 z m 28.7011,0 v 27.2734 h 4.8653 v -19.5195 c 1.0987,1.3117 2.2498,2.7942 3.4531,4.4472 1.2295,1.6266 2.4341,3.3183 3.6113,5.0762 1.1773,1.7316 2.3135,3.4636 3.4121,5.1953 1.0988,1.7053 2.093,3.3053 2.9825,4.8008 h 4.1992 v -27.2734 h -4.9043 v 18.1035 c -0.8894,-1.4168 -1.9095,-2.9378 -3.0606,-4.5645 -1.1248,-1.6529 -2.3037,-3.2932 -3.5332,-4.9199 -1.2034,-1.6266 -2.406,-3.1881 -3.6093,-4.6836 -1.2034,-1.5218 -2.3286,-2.8336 -3.375,-3.9355 z m 29.9571,0 v 27.2734 h 4.9453 v -27.2734 z m 9.6308,0 v 4.289 h 8.3594 v 22.9844 h 4.9824 v -22.9844 h 8.3574 v -4.289 z m 24.2676,0 c 1.465,2.7811 2.9961,5.5498 4.5918,8.3046 1.5958,2.7549 3.2966,5.5345 5.1016,8.3418 v 10.627 h 4.9433 v -10.7051 c 1.805,-2.7811 3.4929,-5.535 5.0625,-8.2637 1.5958,-2.7548 3.1249,-5.5235 4.5899,-8.3046 h -5.4922 c -0.9156,2.0464 -1.9357,4.0793 -3.0606,6.0996 -1.1249,2.0202 -2.2759,4.0147 -3.4531,5.9824 -1.2033,-1.9677 -2.3544,-3.9622 -3.4531,-5.9824 -1.0987,-2.0203 -2.1059,-4.0532 -3.0215,-6.0996 z m 75.1973,0 c -0.9157,1.9416 -1.8067,3.9103 -2.6699,5.9043 -0.8633,1.9939 -1.7395,4.0929 -2.629,6.2968 -0.8632,2.2039 -1.7523,4.5377 -2.6679,7.0039 -0.9156,2.4662 -1.8841,5.1561 -2.9043,8.0684 h 5.1406 c 0.3663,-1.0495 0.7334,-2.099 1.0996,-3.1484 0.3924,-1.0758 0.7705,-2.1637 1.1367,-3.2657 h 11.459 c 0.3662,1.102 0.7463,2.1771 1.1387,3.2266 0.3925,1.0495 0.7705,2.1118 1.1367,3.1875 h 5.3379 c -1.0203,-2.9123 -2.0016,-5.6022 -2.9434,-8.0684 -0.9156,-2.4662 -1.8175,-4.8 -2.707,-7.0039 -0.8633,-2.2039 -1.7266,-4.3029 -2.5898,-6.2968 -0.8633,-1.9941 -1.7544,-3.9627 -2.67,-5.9043 z m 14.0254,0 c 1.4649,2.7811 2.994,5.5498 4.5898,8.3046 1.5958,2.7549 3.2966,5.5345 5.1016,8.3418 v 10.627 h 4.9453 v -10.7051 c 1.805,-2.7811 3.4909,-5.535 5.0605,-8.2637 1.5958,-2.7548 3.1268,-5.5235 4.5918,-8.3046 h -5.4941 c -0.9156,2.0464 -1.9357,4.0793 -3.0606,6.0996 -1.1248,2.0202 -2.2758,4.0147 -3.4531,5.9824 -1.2033,-1.9677 -2.3544,-3.9622 -3.4531,-5.9824 -1.0987,-2.0203 -2.1059,-4.0532 -3.0215,-6.0996 z m 60.7558,0 v 27.2734 h 4.9434 v -27.2734 z m 12.377,0 v 27.2734 h 4.8672 v -19.5195 c 1.0987,1.3117 2.2478,2.7942 3.4511,4.4472 1.2296,1.6266 2.4342,3.3183 3.6114,5.0762 1.1772,1.7316 2.3153,3.4636 3.414,5.1953 1.0987,1.7053 2.0929,3.3053 2.9824,4.8008 h 4.1973 v -27.2734 h -4.9043 v 18.1035 c -0.8894,-1.4168 -1.9095,-2.9378 -3.0605,-4.5645 -1.1249,-1.6529 -2.3017,-3.2932 -3.5313,-4.9199 -1.2034,-1.6266 -2.408,-3.1881 -3.6113,-4.6836 -1.2034,-1.5218 -2.3267,-2.8336 -3.3731,-3.9355 z m 90.9707,0 v 27.2734 h 4.8672 v -19.5195 c 1.0987,1.3117 2.2498,2.7942 3.4531,4.4472 1.2295,1.6266 2.4322,3.3183 3.6094,5.0762 1.1772,1.7316 2.3153,3.4636 3.414,5.1953 1.0988,1.7053 2.093,3.3053 2.9825,4.8008 h 4.1992 v -27.2734 h -4.9063 v 18.1035 c -0.8894,-1.4168 -1.9095,-2.9378 -3.0605,-4.5645 -1.1249,-1.6529 -2.3018,-3.2932 -3.5313,-4.9199 -1.2034,-1.6266 -2.4079,-3.1881 -3.6113,-4.6836 -1.2033,-1.5218 -2.3266,-2.8336 -3.373,-3.9355 z m 29.957,0 v 27.2734 h 18.4043 v -4.2109 h -13.459 v -7.9883 h 11.1446 v -4.1328 h -11.1446 v -6.7305 h 12.5176 v -4.2109 z m 46.0254,0 v 27.2734 h 4.9434 v -27.2734 z m 20.1856,0 c -0.9156,1.9416 -1.8048,3.9103 -2.668,5.9043 -0.8633,1.9939 -1.7394,4.0929 -2.6289,6.2968 -0.8633,2.2039 -1.7524,4.5377 -2.668,7.0039 -0.9156,2.4662 -1.8841,5.1561 -2.9043,8.0684 h 5.1406 l 1.0977,-3.1484 c 0.3925,-1.0758 0.7725,-2.1637 1.1387,-3.2657 h 11.4589 c 0.3663,1.102 0.7444,2.1771 1.1368,3.2266 0.3924,1.0495 0.7724,2.1118 1.1386,3.1875 h 5.336 c -1.0203,-2.9123 -2.0016,-5.6022 -2.9434,-8.0684 -0.9156,-2.4662 -1.8175,-4.8 -2.707,-7.0039 -0.8633,-2.2039 -1.7266,-4.3029 -2.5899,-6.2968 -0.8633,-1.9941 -1.7523,-3.9627 -2.6679,-5.9043 z m 61.1093,3.5019 c 0.8634,0 1.5828,0.2623 2.1582,0.7871 0.5756,0.5247 1.033,1.2478 1.3731,2.166 0.3662,0.8921 0.6281,1.9545 0.7851,3.1875 0.157,1.2332 0.2364,2.5578 0.2364,3.9746 0,1.4168 -0.079,2.7415 -0.2364,3.9746 -0.157,1.2331 -0.4189,2.3083 -0.7851,3.2266 -0.3401,0.892 -0.7975,1.6003 -1.3731,2.125 -0.5754,0.5247 -1.2948,0.7871 -2.1582,0.7871 -0.8632,0 -1.5956,-0.2624 -2.1972,-0.7871 -0.5756,-0.5247 -1.046,-1.233 -1.4121,-2.125 -0.3402,-0.9183 -0.5892,-1.9935 -0.7461,-3.2266 -0.1309,-1.2331 -0.1973,-2.5578 -0.1973,-3.9746 0,-1.4168 0.066,-2.7414 0.1973,-3.9746 0.1569,-1.233 0.4059,-2.2954 0.7461,-3.1875 0.3661,-0.9182 0.8365,-1.6413 1.4121,-2.166 0.6016,-0.5248 1.334,-0.7871 2.1972,-0.7871 z m -593.6992,0.2363 c 1.2295,0 2.3399,0.2368 3.334,0.709 0.9941,0.4723 1.8316,1.142 2.5117,2.0078 0.7063,0.8396 1.2432,1.8763 1.6094,3.1094 0.3663,1.2069 0.5488,2.5573 0.5488,4.0527 0,1.4956 -0.1825,2.8607 -0.5488,4.0938 -0.3662,1.2069 -0.9031,2.2415 -1.6094,3.1074 -0.6801,0.8395 -1.5176,1.4966 -2.5117,1.9688 -0.9941,0.4723 -2.1045,0.7089 -3.334,0.7089 -1.2557,0 -2.3809,-0.2366 -3.375,-0.7089 -0.9941,-0.4722 -1.8444,-1.1293 -2.5508,-1.9688 -0.6801,-0.8659 -1.204,-1.9005 -1.5703,-3.1074 -0.3662,-1.2331 -0.5488,-2.5982 -0.5488,-4.0938 0,-1.4954 0.1826,-2.8458 0.5488,-4.0527 0.3663,-1.2069 0.8902,-2.2435 1.5703,-3.1094 0.7064,-0.8658 1.5567,-1.5355 2.5508,-2.0078 0.9941,-0.4722 2.1193,-0.709 3.375,-0.709 z m 416.9023,0 c 1.2296,0 2.3419,0.2368 3.336,0.709 0.9941,0.4723 1.8316,1.142 2.5117,2.0078 0.7063,0.8396 1.2431,1.8763 1.6094,3.1094 0.3662,1.2069 0.5488,2.5573 0.5488,4.0527 0,1.4956 -0.1826,2.8607 -0.5488,4.0938 -0.3663,1.2069 -0.9031,2.2415 -1.6094,3.1074 -0.6801,0.8395 -1.5176,1.4966 -2.5117,1.9688 -0.9941,0.4723 -2.1064,0.7089 -3.336,0.7089 -1.2557,0 -2.3809,-0.2366 -3.375,-0.7089 -0.994,-0.4722 -1.8424,-1.1293 -2.5488,-1.9688 -0.6801,-0.8659 -1.204,-1.9005 -1.5703,-3.1074 -0.3662,-1.2331 -0.5488,-2.5982 -0.5488,-4.0938 0,-1.4954 0.1826,-2.8458 0.5488,-4.0527 0.3663,-1.2069 0.8902,-2.2435 1.5703,-3.1094 0.7064,-0.8658 1.5548,-1.5355 2.5488,-2.0078 0.9941,-0.4722 2.1193,-0.709 3.375,-0.709 z m -187.0761,0.2774 c 3.3484,0 5.8202,0.8256 7.416,2.4785 1.5957,1.6529 2.3945,4.0271 2.3945,7.123 0,3.0435 -0.8246,5.4176 -2.4726,7.1231 -1.622,1.6791 -4.0937,2.5195 -7.416,2.5195 h -1.9239 c -0.4708,-0.027 -0.849,-0.054 -1.1367,-0.08 v -19.0468 c 0.6279,-0.079 1.6737,-0.1172 3.1387,-0.1172 z m 153.666,0 c 3.3485,0 5.8202,0.8256 7.416,2.4785 1.5957,1.6529 2.3945,4.0271 2.3945,7.123 0,3.0435 -0.8245,5.4176 -2.4726,7.1231 -1.622,1.6791 -4.0937,2.5195 -7.416,2.5195 h -1.9239 c -0.4708,-0.027 -0.8489,-0.054 -1.1367,-0.08 v -19.0468 c 0.6279,-0.079 1.6738,-0.1172 3.1387,-0.1172 z m -122.9629,1.2578 c 0.5755,1.3381 1.2543,3.0169 2.0391,5.0371 0.7848,2.0202 1.5964,4.1981 2.4336,6.5332 h -8.9473 c 0.8371,-2.3351 1.6359,-4.4983 2.3945,-6.4922 0.7848,-1.994 1.4784,-3.6875 2.0801,-5.0781 z m 274.2969,0 c 0.5754,1.3381 1.2562,3.0169 2.041,5.0371 0.7849,2.0202 1.5965,4.1981 2.4336,6.5332 h -8.9473 c 0.8372,-2.3351 1.634,-4.4983 2.3926,-6.4922 0.7848,-1.994 1.4783,-3.6875 2.0801,-5.0781 z" />
    <path
       id="path1678"
       style="fill:#ffffff;fill-opacity:1;stroke:#ffffff;stroke-width:0;stroke-miterlimit:4;stroke-dasharray:none;stroke-opacity:1"
       d="m 7028.5269,2651.0016 c -0.855,0 -1.7091,0.021 -2.5632,0.065 -6.4699,0.3256 -12.8107,1.9281 -18.6472,4.7163 L 6752.893,2777.348 c -13.34,6.3706 -23.0289,18.42 -26.3247,32.7362 l -62.7655,273.0683 c -2.9284,12.7108 -0.5473,26.0563 6.6034,36.997 0.8587,1.324 1.7819,2.6069 2.7669,3.8412 l 103.7044,128.9405 212.9788,-23.1837 h 5.4787 66.3237 5.4813 l 212.9522,23.1789 103.702,-129.0028 c 9.239,-11.4825 12.7023,-26.5136 9.4063,-40.8358 l -62.8662,-273.0683 c -3.2963,-14.3155 -12.9851,-26.3638 -26.3247,-32.7339 l -254.457,-121.5027 c -6.5599,-3.1341 -13.7444,-4.768 -21.0257,-4.7811 z m -0.3021,73.1046 c 1.5522,-0.086 3.1468,0.6832 3.6133,2.4241 0.9476,3.4675 2.2736,7.3505 3.8867,9.5862 2.5788,3.5745 5.4414,9.9487 5.7786,15.1656 0.3907,6.0411 4.3941,7.9328 5.1479,12.9622 0.3857,2.5493 0.3397,5.111 0.1678,7.2099 -0.07,0.8598 0.5448,1.5538 1.4075,1.5538 h 6.9942 a 1.0020833,1.0020833 0 0 1 0.9087,1.4194 l -2.8508,6.2197 a 1.0020833,1.0020833 0 0 0 0.9111,1.4195 h 6.3156 a 1.562151,1.562151 0 0 1 1.561,1.5633 v 6.5362 a 2.840636,2.840636 0 0 1 -1.3189,2.3977 l -14.2761,9.0539 a 2.7151994,2.7151994 0 0 0 -1.2588,2.3978 l 16.439,425.7247 h -66.3214 l 16.4413,-425.7247 a 2.7151926,2.7151926 0 0 0 -1.2589,-2.3978 l -14.2761,-9.0539 a 2.8406471,2.8406471 0 0 1 -1.3187,-2.3977 v -6.5362 a 1.562151,1.562151 0 0 1 1.5633,-1.5633 h 6.3157 a 1.0020833,1.0020833 0 0 0 0.9087,-1.4195 l -2.8509,-6.2197 a 1.0020833,1.0020833 0 0 1 0.9111,-1.4194 h 4.0882 c 0.8628,0 1.5824,-0.699 1.6424,-1.5586 0.7501,-10.7378 5.1411,-10.6514 6.8504,-16.753 1.3989,-4.9937 0.4522,-9.7095 3.3112,-16.2902 1.8184,-4.1858 4.9142,-8.9059 7.5745,-12.6024 0.6052,-1.0483 1.785,-1.631 2.9924,-1.6976 z m -174.6654,51.2276 c 0.3343,-0.012 0.6701,-9e-4 1.0047,0.022 3.2128,0.2155 6.3777,1.8321 8.2434,5.0952 l 110.5979,193.437 c 2.9212,5.1093 -1.3794,11.3268 -7.1909,10.3967 l -220.0232,-35.2179 c -9.8972,-1.5842 -12.0902,-15.9553 -2.6111,-19.2131 l 37.4094,-12.8567 c 0,0 17.8814,-6.1484 37.4118,-12.8638 19.5304,-6.7154 28.4538,-19.6193 27.845,-40.2628 -0.6089,-20.6436 -1.1653,-39.5458 -1.1653,-39.5458 l -1.1725,-39.5386 c -0.1741,-5.8703 4.6367,-9.3375 9.6508,-9.4518 z m 349.8797,0 c 5.0141,0.1141 9.8248,3.5815 9.6509,9.4518 l -1.1725,39.5386 c 0,0 -0.5564,18.9022 -1.1653,39.5458 -0.6088,20.6435 8.3144,33.5474 27.8448,40.2628 19.5304,6.7154 37.4143,12.8638 37.4143,12.8638 l 37.407,12.8567 c 9.4791,3.2578 7.2862,17.6289 -2.611,19.2131 l -220.0234,35.2179 c -5.8115,0.9302 -10.1095,-5.2873 -7.1883,-10.3967 l 110.5955,-193.437 c 1.8656,-3.2631 5.0306,-4.8797 8.2433,-5.0952 0.3347,-0.022 0.6705,-0.03 1.0047,-0.022 z m -404.6151,52.6278 a 32.800208,32.800208 0 0 1 18.5537,5.8241 32.800208,32.800208 0 0 1 8.3201,45.6336 32.800208,32.800208 0 0 1 -45.6337,8.3202 32.800208,32.800208 0 0 1 -8.3201,-45.636 32.800208,32.800208 0 0 1 27.08,-14.1419 z m 459.3505,0 a 32.800208,32.800208 0 0 1 27.0801,14.1419 32.800208,32.800208 0 0 1 -8.3201,45.636 32.800208,32.800208 0 0 1 -45.6337,-8.3202 32.800208,32.800208 0 0 1 8.3201,-45.636 32.800208,32.800208 0 0 1 18.5536,-5.8217 z m -290.6987,193.0487 c 5.5452,-0.2092 8.8618,6.098 5.546,10.5477 l -125.5358,168.4646 c -5.6469,7.578 -18.6124,3.1335 -17.1942,-6.2101 l 5.5987,-36.8747 5.5915,-36.8819 c 2.9198,-19.2527 -3.9635,-32.3441 -21.4789,-40.8526 -17.5153,-8.5087 -33.5538,-16.2998 -33.5538,-16.2998 l -33.5491,-16.2926 c -8.5011,-4.1282 -4.8115,-17.3273 4.6324,-17.6833 z m 122.047,0 209.9432,7.9173 c 9.4438,0.356 13.1335,13.5551 4.6323,17.6833 l -33.549,16.2926 c 0,0 -16.0385,7.7911 -33.5539,16.2998 -17.5153,8.5085 -24.3987,21.5999 -21.4789,40.8526 l 5.5939,36.8819 5.5963,36.8747 c 1.4183,9.3436 -11.5473,13.7881 -17.1942,6.2101 L 7083.9768,3031.558 c -3.3159,-4.4497 7e-4,-10.7569 5.546,-10.5477 z m -292.9455,65.6212 a 30.926287,30.926287 0 0 1 27.442,16.5348 30.926287,30.926287 0 0 1 -12.9813,41.7637 30.926287,30.926287 0 0 1 -41.7661,-12.9813 30.926287,30.926287 0 0 1 12.9838,-41.7638 30.926287,30.926287 0 0 1 14.3216,-3.5534 z m 463.844,0 a 30.926287,30.926287 0 0 1 14.324,3.5534 30.926287,30.926287 0 0 1 12.9814,41.7638 30.926287,30.926287 0 0 1 -41.7662,12.9836 30.926287,30.926287 0 0 1 -12.9813,-41.766 30.926287,30.926287 0 0 1 27.4421,-16.5348 z" />
  </g>
</svg>
